<svg id="visual" viewBox="0 0 900 600" width="900" height="600" xmlns="http://www.w3.org/2000/svg" xmlns:xlink="http://www.w3.org/1999/xlink" version="1.1"><rect x="0" y="0" width="900" height="600" fill="#140021"></rect><path d="M0 463L100 463L100 459L200 459L200 440L300 440L300 468L400 468L400 492L500 492L500 446L600 446L600 469L700 469L700 504L800 504L800 507L900 507L900 494L900 601L900 601L800 601L800 601L700 601L700 601L600 601L600 601L500 601L500 601L400 601L400 601L300 601L300 601L200 601L200 601L100 601L100 601L0 601Z" fill="#9900ff"></path><path d="M0 452L100 452L100 519L200 519L200 482L300 482L300 516L400 516L400 489L500 489L500 474L600 474L600 481L700 481L700 473L800 473L800 469L900 469L900 477L900 601L900 601L800 601L800 601L700 601L700 601L600 601L600 601L500 601L500 601L400 601L400 601L300 601L300 601L200 601L200 601L100 601L100 601L0 601Z" fill="#8e00ec"></path><path d="M0 516L100 516L100 531L200 531L200 474L300 474L300 519L400 519L400 483L500 483L500 476L600 476L600 520L700 520L700 520L800 520L800 505L900 505L900 503L900 601L900 601L800 601L800 601L700 601L700 601L600 601L600 601L500 601L500 601L400 601L400 601L300 601L300 601L200 601L200 601L100 601L100 601L0 601Z" fill="#8200d9"></path><path d="M0 543L100 543L100 499L200 499L200 551L300 551L300 522L400 522L400 528L500 528L500 502L600 502L600 496L700 496L700 508L800 508L800 522L900 522L900 540L900 601L900 601L800 601L800 601L700 601L700 601L600 601L600 601L500 601L500 601L400 601L400 601L300 601L300 601L200 601L200 601L100 601L100 601L0 601Z" fill="#7700c6"></path><path d="M0 524L100 524L100 530L200 530L200 545L300 545L300 560L400 560L400 564L500 564L500 556L600 556L600 535L700 535L700 543L800 543L800 535L900 535L900 541L900 601L900 601L800 601L800 601L700 601L700 601L600 601L600 601L500 601L500 601L400 601L400 601L300 601L300 601L200 601L200 601L100 601L100 601L0 601Z" fill="#6c00b4"></path><path d="M0 578L100 578L100 557L200 557L200 576L300 576L300 537L400 537L400 561L500 561L500 551L600 551L600 552L700 552L700 558L800 558L800 556L900 556L900 553L900 601L900 601L800 601L800 601L700 601L700 601L600 601L600 601L500 601L500 601L400 601L400 601L300 601L300 601L200 601L200 601L100 601L100 601L0 601Z" fill="#6100a2"></path><path d="M0 561L100 561L100 594L200 594L200 572L300 572L300 586L400 586L400 573L500 573L500 559L600 559L600 576L700 576L700 570L800 570L800 561L900 561L900 582L900 601L900 601L800 601L800 601L700 601L700 601L600 601L600 601L500 601L500 601L400 601L400 601L300 601L300 601L200 601L200 601L100 601L100 601L0 601Z" fill="#560090"></path></svg>